<?xml version="1.0" encoding="utf-8"?>
<!-- Generator: Adobe Illustrator 26.0.1, SVG Export Plug-In . SVG Version: 6.00 Build 0)  -->
<svg version="1.1" id="Capa_1" xmlns="http://www.w3.org/2000/svg" xmlns:xlink="http://www.w3.org/1999/xlink" x="0px" y="0px"
	 viewBox="0 0 800 450" style="enable-background:new 0 0 800 450;" xml:space="preserve">
<style type="text/css">
	.st0{fill:none;stroke:#1D1E1C;stroke-width:2;stroke-linecap:round;stroke-linejoin:round;}
	.st1{fill:#1D1E1C;}
	.st2{font-family:'ArialMT';}
	.st3{font-size:12px;}
	.st4{fill:#E63812;}
</style>
<image style="overflow:visible;enable-background:new    ;" width="692" height="295" xlink:href="territorio.png"  transform="matrix(0.9971 0 0 0.9831 35 75)">
</image>
<line class="st0" x1="311.1" y1="227.5" x2="335.7" y2="227.4"/>
<path class="st1" d="M311.1,231.3c-2.1,0-3.8-1.7-3.8-3.7c0-2.1,1.7-3.8,3.7-3.8c2.1,0,3.8,1.7,3.8,3.7
	C314.9,229.6,313.2,231.3,311.1,231.3z"/>
<text transform="matrix(1 0 0 1 340.38 227.5)" class="st2 st3">HEMBRA</text>
<path class="st0" d="M470.5,164.5l179-83.2H695"/>
<path class="st1" d="M472.1,167.9c-1.9,0.9-4.1,0.1-5-1.8s-0.1-4.1,1.8-5s4.1-0.1,5,1.8S474,167,472.1,167.9z"/>
<text transform="matrix(1 0 0 1 540.2 77.5)" class="st2 st3">PERIMETRO DE COMUNA DE SANTIAGO, CL</text>
<path class="st0" d="M282.1,135.3L210.9,86c0,0-82.4,0.1-108.5,0.1"/>
<path class="st1" d="M284.2,132.3c1.7,1.2,2.1,3.5,0.9,5.2s-3.5,2.1-5.2,0.9s-2.1-3.5-0.9-5.2S282.5,131.1,284.2,132.3z"/>
<text transform="matrix(1 0 0 1 85.301 77.5)" class="st2 st3">MACHO</text>
<path class="st4" d="M674.9,243h-19.7c-0.6,0-1.1-0.5-1.1-1.1v-4.8c0-0.6,0.5-1.1,1.1-1.1h19.7c0.6,0,1.1,0.5,1.1,1.1v4.8
	C676,242.5,675.5,243,674.9,243z"/>
<path class="st0" d="M680.1,239.5c0,0,65.4,0.1,91.9,0.1"/>
<path class="st1" d="M680.1,243.3c-2.1,0-3.8-1.7-3.8-3.8s1.7-3.8,3.8-3.8s3.8,1.7,3.8,3.8S682.2,243.3,680.1,243.3z"/>
<text transform="matrix(1 0 0 1 744.58 236.04)" class="st2 st3">ZOO</text>
</svg>
