<?xml version="1.0"?>
<svg xmlns="http://www.w3.org/2000/svg" viewBox="0 0 24 24">
    <path d="M20,2H4C2.895,2,2,2.895,2,4v16c0,1.104,0.895,2,2,2h16c1.105,0,2-0.896,2-2V4C22,2.895,21.105,2,20,2z M14.245,10.213v1.113h-2.454v0.908h2.454v1.113h-2.454c0.015,0.41,0.079,0.753,0.194,1.029c0.115,0.275,0.27,0.498,0.465,0.666 c0.195,0.169,0.427,0.288,0.696,0.359c0.269,0.07,0.566,0.106,0.894,0.106c0.249,0,0.489-0.018,0.722-0.055 c0.231-0.036,0.455-0.094,0.67-0.172l0.264,1.772c-0.293,0.068-0.597,0.121-0.912,0.157c-0.314,0.037-0.636,0.055-0.963,0.055 c-0.601,0-1.156-0.081-1.666-0.245c-0.511-0.163-0.952-0.408-1.326-0.735c-0.373-0.327-0.669-0.735-0.886-1.224 c-0.218-0.488-0.336-1.059-0.356-1.714H8.349v-1.113h1.238v-0.908H8.349v-1.113h1.252c0.044-0.64,0.181-1.202,0.41-1.689 c0.229-0.485,0.535-0.891,0.916-1.216c0.381-0.324,0.829-0.569,1.344-0.736c0.515-0.165,1.08-0.248,1.695-0.248 c0.293,0,0.582,0.02,0.868,0.062c0.285,0.042,0.572,0.097,0.86,0.165L15.432,8.33c-0.2-0.067-0.417-0.124-0.652-0.168 c-0.234-0.044-0.469-0.066-0.703-0.066c-0.332,0-0.63,0.041-0.894,0.121c-0.264,0.081-0.492,0.207-0.685,0.377 c-0.193,0.172-0.348,0.392-0.465,0.66c-0.117,0.269-0.193,0.588-0.227,0.959H14.245z"/>
</svg>
