<?xml version="1.0" encoding="utf-8"?>
<!-- Generator: Adobe Illustrator 19.1.1, SVG Export Plug-In . SVG Version: 6.00 Build 0)  -->
<svg version="1.1"  xmlns="http://www.w3.org/2000/svg" xmlns:xlink="http://www.w3.org/1999/xlink" x="0px" y="0px"
	 viewBox="0 0 48 48" enable-background="new 0 0 48 48" xml:space="preserve">
<path fill="#FF9E80" d="M17.5,36h2.1c0.4-0.6,1.2-1,2.4-1s1.9,0.4,2.4,1l3.2,0C35,36,41,29.4,41,22c0-7.4-6-13-13.5-13h-10
	C10.1,9,4,15,4,21.9C4,29.9,10.1,36,17.5,36z"/>
<circle fill="#37474F" cx="36.5" cy="17.5" r="1.5"/>
<circle fill="#FFEA00" cx="22" cy="20" r="6"/>
<path fill="none" stroke="#FFFFFF" stroke-width="2" stroke-linecap="square" stroke-miterlimit="10" d="M19.8,18.8L22,21v3.3
	 M24.2,18.8L22,21"/>
<path fill="#283593" d="M19,25v3c0,1,0.7,1.8,1.6,2c0.2,0.6,0.8,1,1.4,1c0.7,0,1.2-0.4,1.4-1c0.9-0.2,1.6-1,1.6-2v-3H19z"/>
<path fill="#5C6BC0" d="M25,28v-1.9l-6,0.8V28c0,0.3,0.1,0.6,0.2,0.9l5.8-0.7C25,28.1,25,28,25,28z"/>
<path fill="#FF6E40" d="M19,38c0,2.4,0.2,4-2,4H12c-0.3,0-1-0.4-1-1c0,0-0.1-4.9-0.9-7.3c2.1,1.5,4.7,2.3,7.5,2.3h2.1c0,0,0,0,0,0
	C19.1,36.6,19,37.4,19,38z M5.7,15.7c0.3-0.6,0.7-1.1,1.1-1.6C6.3,13.5,6,12.8,6,12c0-1.7,1.3-3,3-3c0.6,0,1-0.4,1-1S9.6,7,9,7
	c-2.8,0-5,2.2-5,5C4,13.5,4.7,14.8,5.7,15.7z M42.9,17.4c-0.9-0.6-2.5-0.8-3.7-1.9c1.1,1.9,1.8,4.1,1.8,6.5c0,2.1-0.5,4.1-1.4,6
	c1-0.8,2.4-1.2,3.3-1.7c1.2-0.7,1.1-1,1.1-2.2v-4.4C44,18.3,44.1,18.1,42.9,17.4z M35,12c-0.1,1.5,0.2,3.1-2,3c-2.6-0.1-5-1.9-5-4
	c0-2.1,1.1-3.2,2.9-4c2.2-1,7.1-0.9,7.1-0.9S35.3,7.4,35,12z M33.3,34.6c-1.5,0.8-3,1.2-4.7,1.4c-0.3,0-0.7,0.1-1.1,0.1l-3.2,0
	c0,0,0,0,0,0c0.5,0.6,0.6,1.4,0.6,2c0,2.4-0.2,4.1,2,4.1l4.9,0c0.6,0,1.1-0.4,1.1-1C33,41,32.9,36.9,33.3,34.6z"/>
</svg>
